# xmcd
#
# Track frame offsets: 
#        150
#        19767
#        37545
#        51177
#        66635
#        89172
#        103029
#        122587
#        140167
#        165222
#
# Disc length: 2572 seconds
#
# Revision: 0
# Processed by: cddbd v1.5.2PL0 Copyright (c) Steve Scherf et al.
# Submitted via: ExactAudioCopyFreeDBPlugin 1.0
#
DISCID=850a0a0a
DTITLE=Neşe Karaböcek - Bir Tanem
DYEAR=2014
DGENRE=Folk, World, and Country
TTITLE0=Ay İnce Cam Gibi
TTITLE1=Allah Derim
TTITLE2=Mektup
TTITLE3=Yalvarıyorum
TTITLE4=Bir Gözle Ağla Bir Gözle Gül
TTITLE5=Sana Vah Bana Vah
TTITLE6=Sahi Mi Yemin Et
TTITLE7=Bir Tanem
TTITLE8=Deli Bu
TTITLE9=Kapandım Odalara
EXTD=
EXTT0=
EXTT1=
EXTT2=
EXTT3=
EXTT4=
EXTT5=
EXTT6=
EXTT7=
EXTT8=
EXTT9=
PLAYORDER=
